<svg xmlns="http://www.w3.org/2000/svg" viewBox="0 0 1200 630" width="1200" height="630">
	<rect width="1200" height="630" fill="#fff7ec" />
	<rect x="0" y="516" width="1200" height="114" fill="#ff8201" />

	<text
		x="600"
		y="176"
		text-anchor="middle"
		font-family="'Londrina Solid', Impact, Haettenschweiler, sans-serif"
		font-size="112"
		font-weight="900"
		fill="#ff8201"
	>Aprenem a ballar</text>
	<text
		x="600"
		y="288"
		text-anchor="middle"
		font-family="'Londrina Solid', Impact, Haettenschweiler, sans-serif"
		font-size="112"
		font-weight="900"
		fill="#ff8201"
	>sardanes?</text>

	<!-- Dancing ninos (same stroke-based blobs as the site's Nino component). -->
	<g fill="none" stroke="#1b1b1b" stroke-linecap="round" stroke-linejoin="round">
		<g transform="translate(236,300) scale(0.46)">
			<path d="M88 196 C60 176 40 150 30 112" stroke-width="24" />
			<path d="M232 188 C256 172 272 150 280 122" stroke-width="24" />
			<path d="M126 330 C118 354 112 372 100 390" stroke-width="24" />
			<path d="M192 332 C200 356 210 372 224 388" stroke-width="24" />
			<path d="M160 64 C213 64 252 104 252 168 C252 240 220 336 160 336 C100 336 68 240 68 168 C68 104 107 64 160 64 Z" stroke-width="26" />
			<ellipse cx="134" cy="150" rx="14" ry="18" stroke-width="18" />
			<ellipse cx="186" cy="150" rx="14" ry="18" stroke-width="18" />
		</g>
		<g transform="translate(436,300) scale(0.46)">
			<path d="M84 190 C58 168 44 138 42 104" stroke-width="24" />
			<path d="M236 190 C262 168 276 138 278 104" stroke-width="24" />
			<path d="M132 330 C126 356 120 374 112 394" stroke-width="24" />
			<path d="M188 330 C194 356 202 372 212 392" stroke-width="24" />
			<path d="M160 64 C213 64 252 104 252 168 C252 240 220 336 160 336 C100 336 68 240 68 168 C68 104 107 64 160 64 Z" stroke-width="26" />
			<ellipse cx="134" cy="150" rx="14" ry="18" stroke-width="18" />
			<ellipse cx="186" cy="150" rx="14" ry="18" stroke-width="18" />
		</g>
		<g transform="translate(636,300) scale(0.46)">
			<path d="M80 198 C48 186 28 160 20 128" stroke-width="24" />
			<path d="M240 198 C272 186 292 160 300 128" stroke-width="24" />
			<path d="M138 332 C128 356 118 372 108 396" stroke-width="24" />
			<path d="M182 332 C196 354 206 368 224 384" stroke-width="24" />
			<path d="M160 64 C213 64 252 104 252 168 C252 240 220 336 160 336 C100 336 68 240 68 168 C68 104 107 64 160 64 Z" stroke-width="26" />
			<ellipse cx="134" cy="150" rx="14" ry="18" stroke-width="18" />
			<ellipse cx="186" cy="150" rx="14" ry="18" stroke-width="18" />
		</g>
		<g transform="translate(836,300) scale(0.46)">
			<path d="M86 188 C62 164 50 132 48 98" stroke-width="24" />
			<path d="M232 192 C256 174 272 150 282 120" stroke-width="24" />
			<path d="M134 330 C126 356 120 376 114 396" stroke-width="24" />
			<path d="M190 328 C206 348 224 356 244 350" stroke-width="24" />
			<path d="M160 64 C213 64 252 104 252 168 C252 240 220 336 160 336 C100 336 68 240 68 168 C68 104 107 64 160 64 Z" stroke-width="26" />
			<ellipse cx="134" cy="150" rx="14" ry="18" stroke-width="18" />
			<ellipse cx="186" cy="150" rx="14" ry="18" stroke-width="18" />
		</g>
	</g>

	<text
		x="600"
		y="588"
		text-anchor="middle"
		font-family="Inter, system-ui, sans-serif"
		font-size="34"
		font-weight="700"
		fill="#ffffff"
	>Un curs als caps de setmana · Barrakudes de Begur</text>
</svg>
